<svg version="1.2" xmlns="http://www.w3.org/2000/svg" viewBox="0 0 800 800" width="800" height="800"><style>.a{fill:#fff}</style><path class="a" d="m417.7 0.7c43.6-0.7 87-0.4 130.3-0.7 2.7 51 21 103 58.3 139 37.4 37 90 54 141.4 59.7v134.3c-48-1.7-96.4-11.7-140-32.3-19-8.7-36.7-19.7-54-31-0.4 97.3 0.3 194.6-0.7 291.6-2.7 46.7-18 93-45 131.4-43.7 64-119.3 105.6-197 107-47.7 2.6-95.3-10.4-136-34.4-67.3-39.6-114.7-112.3-121.7-190.3-0.6-16.7-1-33.3-0.3-49.7 6-63.3 37.3-124 86-165.3 55.3-48 132.7-71 205-57.3 0.7 49.3-1.3 98.6-1.3 148-33-10.7-71.7-7.7-100.7 12.3-21 13.7-37 34.7-45.3 58.3-7 17-5 35.7-4.7 53.7 8 54.7 60.7 100.7 116.7 95.7 37.3-0.4 73-22 92.3-53.7 6.3-11 13.3-22.3 13.7-35.3 3.3-59.7 2-119 2.3-178.7 0.3-134.3-0.3-268.3 0.7-402.3z"/></svg>