<svg version="1.2" xmlns="http://www.w3.org/2000/svg" viewBox="0 0 800 800" width="800" height="800"><style>.a{fill:#fff}</style><path class="a" d="m650 100h-500c-6.6 0-13.1 1.3-19.1 3.8-6.1 2.5-11.6 6.2-16.2 10.9-4.7 4.6-8.4 10.1-10.9 16.2-2.5 6-3.8 12.5-3.8 19.1v450c0 6.6 1.3 13.1 3.8 19.1 2.5 6.1 6.2 11.6 10.9 16.2 4.6 4.7 10.1 8.4 16.2 10.9 6 2.5 12.5 3.8 19.1 3.8h50v100c0 4.8 1.4 9.4 3.9 13.4 2.6 4 6.2 7.2 10.5 9.2 4.3 2.1 9.1 2.8 13.8 2.2 4.7-0.6 9.2-2.6 12.8-5.6l143.1-119.2h131.8q4.4 0 8.7-0.8 4.3-0.7 8.4-2.2 4.1-1.5 7.8-3.6 3.8-2.2 7.2-5l134-111.7c2.8-2.3 5.4-5 7.6-7.9 2.2-2.9 4.1-6 5.7-9.3 1.5-3.3 2.7-6.8 3.5-10.3 0.8-3.6 1.2-7.3 1.2-10.9v-338.3c0-6.6-1.3-13.1-3.8-19.1-2.5-6.1-6.2-11.6-10.9-16.2-4.6-4.7-10.1-8.4-16.2-10.9-6-2.5-12.5-3.8-19.1-3.8zm-250 325c0 6.6-2.6 13-7.3 17.7-4.7 4.7-11.1 7.3-17.7 7.3-6.6 0-13-2.6-17.7-7.3-4.7-4.7-7.3-11.1-7.3-17.7v-150c0-6.6 2.6-13 7.3-17.7 4.7-4.7 11.1-7.3 17.7-7.3 6.6 0 13 2.6 17.7 7.3 4.7 4.7 7.3 11.1 7.3 17.7zm150 0c0 6.6-2.6 13-7.3 17.7-4.7 4.7-11.1 7.3-17.7 7.3-6.6 0-13-2.6-17.7-7.3-4.7-4.7-7.3-11.1-7.3-17.7v-150c0-6.6 2.6-13 7.3-17.7 4.7-4.7 11.1-7.3 17.7-7.3 6.6 0 13 2.6 17.7 7.3 4.7 4.7 7.3 11.1 7.3 17.7z"/></svg>